# xmcd
#
# Track frame offsets: 
#        150
#        18370
#        37210
#        57137
#        72817
#        90360
#        104997
#        117517
#        133835
#        148547
#
# Disc length: 2236 seconds
#
# Revision: 2
# Processed by: cddbd v1.5.2PL0 Copyright (c) Steve Scherf et al.
# Submitted via: ExactAudioCopy v0.99pb5
#
DISCID=9208ba0a
DTITLE=John Michael Montgomery - Love Songs
DYEAR=2002
DGENRE=Country
TTITLE0=I Love The Way You Love Me
TTITLE1=Hold On To Me
TTITLE2=I Swear
TTITLE3=Home To You
TTITLE4=I Can Love You Like That
TTITLE5=High School Heart
TTITLE6=Holding An Amazing Love
TTITLE7=Heaven Sent Me You
TTITLE8=Oh How She Shines
TTITLE9=Long As I Live
EXTD=Release Date 2-05-2002\nSubmitted By Scanner1
EXTT0=
EXTT1=
EXTT2=
EXTT3=
EXTT4=
EXTT5=
EXTT6=
EXTT7=
EXTT8=
EXTT9=
PLAYORDER=
